<svg width="75" height="14" viewBox="0 0 75 14" fill="none" xmlns="http://www.w3.org/2000/svg">
<path d="M5.58121 6.08909C5.95912 6.52906 6.16272 7.09227 6.15349 7.6722C6.16094 8.13869 6.0391 8.59815 5.80147 8.99965C5.5524 9.40446 5.18808 9.72564 4.75524 9.92199C4.22655 10.1617 3.65009 10.2774 3.06986 10.2602H0V0.596375H3.0148C3.97843 0.596375 4.70542 0.8186 5.19575 1.26305C5.43718 1.48007 5.62828 1.74722 5.75566 2.04581C5.88305 2.34441 5.94365 2.66723 5.93323 2.99169C5.95829 3.53341 5.78173 4.06519 5.43765 4.48434C5.106 4.87006 4.66391 5.14464 4.17116 5.27098C4.72415 5.36554 5.22466 5.65593 5.58121 6.08909ZM0.619479 4.98976H3.04233C3.76735 4.98976 4.32652 4.81735 4.71984 4.47254C4.91775 4.29351 5.07337 4.0727 5.17541 3.8261C5.27745 3.5795 5.32336 3.31329 5.30982 3.04676C5.32096 2.78573 5.2738 2.52549 5.17174 2.28498C5.06968 2.04447 4.91531 1.82973 4.71984 1.65637C4.33438 1.31549 3.75162 1.14571 2.97153 1.14702H0.611612L0.619479 4.98976ZM4.86733 9.16681C5.08859 8.97933 5.26379 8.74349 5.37939 8.47751C5.49499 8.21154 5.54789 7.92254 5.53401 7.63287C5.5454 7.3417 5.48979 7.05181 5.37148 6.78552C5.25317 6.51924 5.07531 6.28366 4.8516 6.09695C4.39928 5.7174 3.77587 5.52664 2.98726 5.52664H0.627345V9.72336H3.02856C3.80996 9.72336 4.42288 9.53719 4.86733 9.16485V9.16681Z" fill="white"/>
<path d="M9.37479 9.90624C8.81686 9.59388 8.36129 9.12669 8.06307 8.56108C7.73541 7.9301 7.57239 7.2266 7.58912 6.51582C7.57066 5.80925 7.73385 5.10977 8.06307 4.48432C8.36649 3.91974 8.82775 3.45575 9.39053 3.149C9.97385 2.83714 10.6269 2.67878 11.2883 2.68882C11.9466 2.67864 12.5965 2.83705 13.1762 3.149C13.7335 3.45574 14.1898 3.91754 14.4899 4.47842C14.8189 5.10615 14.9827 5.8073 14.9658 6.51582C14.982 7.22747 14.8161 7.93146 14.484 8.56108C14.1784 9.12788 13.7163 9.59482 13.1526 9.90624C12.5728 10.2224 11.9211 10.3836 11.2608 10.3743C10.6021 10.3846 9.95218 10.2233 9.37479 9.90624ZM12.7829 9.45588C13.2625 9.20584 13.6579 8.82007 13.9196 8.34672C14.2198 7.78435 14.367 7.15297 14.3464 6.51582C14.3658 5.88317 14.2187 5.25652 13.9196 4.69868C13.6571 4.2259 13.262 3.84032 12.7829 3.58952C12.3173 3.3463 11.7998 3.21944 11.2745 3.2198C10.7496 3.2162 10.2317 3.3411 9.76615 3.58362C9.29558 3.8405 8.9091 4.22766 8.65305 4.69868C8.35311 5.25619 8.20589 5.88308 8.2263 6.51582C8.20519 7.15208 8.34952 7.78293 8.64518 8.34672C8.90112 8.817 9.28862 9.20245 9.76025 9.45588C10.2257 9.69862 10.7437 9.82354 11.2686 9.81971C11.7952 9.82144 12.3146 9.69667 12.7829 9.45588Z" fill="white"/>
<path d="M16.9246 4.49219C17.2147 3.93374 17.6591 3.47029 18.2048 3.15687C18.7746 2.83852 19.4186 2.67701 20.0711 2.68882C20.7749 2.6721 21.4669 2.87186 22.0535 3.2611C22.5921 3.61814 23.0049 4.13549 23.2334 4.73998V0.0732422H23.8529V10.2602H23.2334V8.27789C23.0162 8.88924 22.6115 9.41642 22.0771 9.78431C21.4865 10.1888 20.7827 10.3954 20.0672 10.3743C19.4137 10.3854 18.7692 10.2211 18.2009 9.89837C17.654 9.5802 17.2098 9.11204 16.9206 8.54928C16.603 7.92078 16.445 7.22377 16.4605 6.51975C16.4451 5.81591 16.6045 5.11925 16.9246 4.49219ZM22.8244 4.78718C22.5714 4.30525 22.1877 3.90444 21.7172 3.63082C21.2383 3.35785 20.6951 3.21797 20.1439 3.2257C19.5862 3.21386 19.0354 3.34955 18.547 3.61902C18.0884 3.88434 17.7184 4.27906 17.4831 4.75375C17.2101 5.303 17.0751 5.91051 17.0898 6.52369C17.0751 7.13686 17.2101 7.74437 17.4831 8.29363C17.7232 8.77206 18.0987 9.16938 18.5627 9.43622C19.0487 9.70008 19.5929 9.8383 20.1459 9.8383C20.6988 9.8383 21.243 9.70008 21.729 9.43622C22.2018 9.16496 22.5868 8.76359 22.8381 8.27986C23.1108 7.74035 23.2459 7.14179 23.2315 6.53745C23.2478 5.93138 23.1097 5.33112 22.8303 4.79308L22.8244 4.78718Z" fill="white"/>
<path d="M32.8186 6.75965H26.3623C26.3595 7.35274 26.5113 7.93632 26.8028 8.45289C27.0594 8.89371 27.4368 9.25194 27.8903 9.48535C28.3465 9.71688 28.8518 9.83494 29.3633 9.82951C30.0206 9.85248 30.6678 9.66206 31.208 9.28673C31.6984 8.93151 32.0336 8.40132 32.1441 7.80588H32.7911C32.6601 8.54353 32.2573 9.20527 31.6622 9.66038C30.9993 10.1523 30.1881 10.4028 29.3633 10.3703C28.7093 10.3829 28.0635 10.2228 27.4911 9.90621C26.9393 9.59338 26.4899 9.12757 26.1971 8.56499C25.8732 7.93283 25.7123 7.22981 25.729 6.51972C25.712 5.81303 25.8701 5.11311 26.1892 4.48233C26.4796 3.92297 26.9274 3.46084 27.4773 3.1529C28.0556 2.83904 28.7054 2.68048 29.3633 2.69272C30.0147 2.67648 30.6586 2.83541 31.2276 3.1529C31.7363 3.4412 32.1539 3.86635 32.4331 4.38006C32.7076 4.88434 32.8497 5.45001 32.8461 6.02414C32.8422 6.35059 32.8422 6.59839 32.8186 6.75965ZM31.8746 4.57082C31.6303 4.12949 31.2589 3.77182 30.8087 3.54426C30.3544 3.32338 29.8546 3.21223 29.3495 3.21977C28.8453 3.21542 28.3473 3.33067 27.8962 3.55606C27.4445 3.78929 27.0675 4.14507 26.8087 4.58262C26.5144 5.09331 26.3604 5.67271 26.3623 6.2621H32.2266C32.2725 5.6776 32.1504 5.09216 31.8746 4.57476V4.57082Z" fill="white"/>
<path d="M39.9495 3.26103C40.4783 3.6159 40.8816 4.12863 41.1019 4.72615V2.78511H41.7214V10.4961C41.7356 11.1291 41.5787 11.7542 41.2671 12.3054C40.9776 12.811 40.5535 13.2263 40.0419 13.505C39.5131 13.7882 38.921 13.9324 38.3211 13.9239C37.4944 13.9558 36.6796 13.7191 35.9986 13.2494C35.3898 12.8087 34.9598 12.1637 34.7872 11.4322H35.3988C35.5719 12.0122 35.9392 12.5149 36.4391 12.8561C36.9974 13.2244 37.6567 13.4093 38.3251 13.3851C38.8198 13.3914 39.308 13.2709 39.743 13.035C40.164 12.8006 40.5097 12.4514 40.7401 12.0281C40.9912 11.5574 41.1159 11.0295 41.1019 10.4961V8.30536C40.8773 8.90754 40.4703 9.42456 39.9377 9.78424C39.3492 10.1869 38.6485 10.3934 37.9357 10.3742C37.2822 10.3853 36.6377 10.221 36.0694 9.8983C35.5225 9.58013 35.0782 9.11197 34.7891 8.54921C34.4715 7.92071 34.3135 7.22371 34.3289 6.51968C34.313 5.8175 34.4711 5.12229 34.7891 4.49605C35.0793 3.9376 35.5236 3.47415 36.0694 3.16073C36.6391 2.84239 37.2831 2.68088 37.9357 2.69268C38.6497 2.66866 39.3534 2.86728 39.9495 3.26103ZM40.7086 4.79301C40.4557 4.31108 40.0719 3.91027 39.6014 3.63665C39.1225 3.36368 38.5793 3.2238 38.0281 3.23153C37.4705 3.21969 36.9196 3.35538 36.4312 3.62485C35.9687 3.88918 35.5951 4.28476 35.3575 4.76155C35.0845 5.3108 34.9495 5.91831 34.9642 6.53148C34.9495 7.14466 35.0845 7.75217 35.3575 8.30142C35.5976 8.77985 35.9731 9.17717 36.4371 9.44402C36.9231 9.70788 37.4673 9.8461 38.0202 9.8461C38.5732 9.8461 39.1174 9.70788 39.6034 9.44402C40.0789 9.16424 40.4629 8.75224 40.7086 8.25816C40.9813 7.71865 41.1164 7.12009 41.1019 6.51575C41.117 5.91764 40.9818 5.3253 40.7086 4.79301Z" fill="white"/>
<path d="M45.3871 9.90626C44.8283 9.59556 44.3714 9.12974 44.0715 8.56504C43.7438 7.93406 43.5808 7.23056 43.5975 6.51977C43.5815 5.81252 43.7474 5.113 44.0794 4.48828C44.3828 3.9237 44.844 3.4597 45.4068 3.15296C45.9909 2.85053 46.639 2.69269 47.2967 2.69269C47.9544 2.69269 48.6026 2.85053 49.1866 3.15296C49.7439 3.4597 50.2002 3.92149 50.5003 4.48238C50.8293 5.11011 50.9931 5.81126 50.9762 6.51977C50.9923 7.23143 50.8265 7.93541 50.4944 8.56504C50.1887 9.13011 49.7273 9.5956 49.165 9.90626C48.5851 10.2224 47.9335 10.3836 47.2731 10.3743C46.6145 10.3846 45.9645 10.2233 45.3871 9.90626ZM48.7933 9.45984C49.2729 9.2098 49.6683 8.82403 49.93 8.35068C50.2302 7.7883 50.3774 7.15692 50.3567 6.51977C50.3762 5.88713 50.2291 5.26047 49.93 4.70264C49.6696 4.23097 49.2773 3.8455 48.8012 3.59347C48.3333 3.35137 47.8137 3.22652 47.2869 3.22965C46.7619 3.22581 46.244 3.35073 45.7785 3.59347C45.305 3.84645 44.9155 4.23187 44.6575 4.70264C44.3576 5.26014 44.2104 5.88703 44.2308 6.51977C44.2079 7.15402 44.3495 7.78339 44.6418 8.34674C44.897 8.81758 45.2847 9.20322 45.7569 9.45591C46.2224 9.69865 46.7403 9.82357 47.2653 9.81973C47.7965 9.82368 48.3208 9.69884 48.7933 9.45591V9.45984Z" fill="white"/>
<path d="M58.408 3.45182C58.9665 3.99854 59.2464 4.80878 59.2477 5.88254V10.2602H58.644V5.93367C58.644 5.04215 58.4191 4.36039 57.9694 3.88841C57.731 3.64849 57.4448 3.46146 57.1294 3.33948C56.8139 3.2175 56.4763 3.16331 56.1385 3.18043C55.7797 3.16415 55.4216 3.22448 55.0879 3.3574C54.7542 3.49033 54.4527 3.6928 54.2034 3.95134C53.7222 4.46397 53.4817 5.2257 53.4817 6.23653V10.2602H52.8622V2.78711H53.4915V4.37023C53.6833 3.83246 54.055 3.37744 54.5436 3.0821C55.0577 2.77642 55.6467 2.61981 56.2447 2.62979C56.6418 2.61626 57.0376 2.68199 57.4091 2.82313C57.7805 2.96427 58.1201 3.17799 58.408 3.45182Z" fill="white"/>
<path d="M68.1426 6.75968H61.6863C61.6827 7.35289 61.8345 7.9367 62.1268 8.45292C62.3827 8.89367 62.7594 9.25195 63.2124 9.48539C63.6687 9.71648 64.1739 9.83451 64.6854 9.82954C65.3428 9.85309 65.9901 9.66262 66.53 9.28676C67.0213 8.93189 67.3571 8.40166 67.4681 7.80591H68.1151C67.9833 8.54214 67.5806 9.20233 66.9863 9.65648C66.3228 10.1487 65.5109 10.3992 64.6854 10.3664C64.0324 10.3799 63.3873 10.2212 62.8151 9.90624C62.2634 9.59341 61.814 9.1276 61.5211 8.56502C61.1972 7.93287 61.0364 7.22985 61.0531 6.51976C61.0361 5.81306 61.1941 5.11314 61.5132 4.48236C61.803 3.92315 62.2501 3.461 62.7994 3.15294C63.3778 2.83933 64.0275 2.68079 64.6854 2.69275C65.3375 2.67626 65.982 2.83519 66.5517 3.15294C67.0597 3.44207 67.4771 3.86701 67.7572 4.3801C68.0301 4.8849 68.1715 5.45032 68.1682 6.02417C68.1682 6.35063 68.1603 6.59842 68.1426 6.75968ZM67.1987 4.57086C66.9544 4.12953 66.583 3.77185 66.1328 3.54429C65.6784 3.32362 65.1786 3.21249 64.6736 3.2198C64.1693 3.21523 63.6712 3.33049 63.2202 3.55609C62.7681 3.7888 62.3911 4.1447 62.1327 4.58266C61.8385 5.09334 61.6845 5.67274 61.6863 6.26213H67.5507C67.5957 5.67769 67.4736 5.09249 67.1987 4.57479V4.57086Z" fill="white"/>
<path d="M70.4888 9.8197C70.2306 9.64264 70.0164 9.40877 69.8627 9.13605C69.7089 8.86332 69.6197 8.55899 69.6019 8.24642H70.2331C70.2509 8.47694 70.3202 8.70052 70.4359 8.90067C70.5517 9.10081 70.7109 9.27241 70.9018 9.40278C71.2951 9.68728 71.8392 9.82954 72.5341 9.82954C73.0237 9.85548 73.5059 9.70083 73.8891 9.39492C74.0474 9.26716 74.1749 9.10532 74.2621 8.92145C74.3493 8.73759 74.3938 8.53643 74.3925 8.33295C74.3974 8.20083 74.3761 8.06905 74.3298 7.94518C74.2836 7.82132 74.2133 7.70782 74.1231 7.61121C73.9365 7.41693 73.7077 7.26821 73.4544 7.17659C73.099 7.04847 72.7373 6.9382 72.3708 6.84621C71.9164 6.73162 71.4703 6.58642 71.0355 6.41159C70.6982 6.27408 70.3997 6.05598 70.1663 5.77638C69.9148 5.44903 69.7898 5.04194 69.8143 4.62985C69.8146 4.28041 69.9262 3.94016 70.1328 3.65835C70.3584 3.34905 70.6616 3.10482 71.0119 2.95037C71.415 2.7703 71.8527 2.681 72.2941 2.68881C72.9743 2.65879 73.6435 2.86749 74.186 3.27879C74.4273 3.47481 74.6228 3.72128 74.7587 4.00089C74.8946 4.2805 74.9676 4.58646 74.9726 4.89731H74.3374C74.3306 4.66608 74.2755 4.43884 74.1755 4.23021C74.0756 4.02157 73.9332 3.83616 73.7573 3.68588C73.4013 3.37319 72.9038 3.21783 72.2725 3.21783C71.7976 3.1993 71.3308 3.34517 70.951 3.63082C70.79 3.74454 70.6586 3.89507 70.5676 4.06987C70.4766 4.24467 70.4287 4.43868 70.4278 4.63575C70.4137 4.94508 70.5194 5.24795 70.7228 5.48139C70.9254 5.69869 71.175 5.86685 71.4524 5.97304C71.8284 6.11513 72.2118 6.23658 72.6009 6.33686C73.0299 6.44362 73.4511 6.57963 73.8615 6.74394C74.1705 6.8713 74.4459 7.06852 74.6659 7.32016C74.8979 7.60516 75.0162 7.96591 74.9982 8.33295C75.0017 8.7058 74.8912 9.07082 74.6816 9.37918C74.4594 9.69704 74.1539 9.94746 73.7986 10.1029C73.4016 10.2824 72.9697 10.3717 72.5341 10.3645C71.6989 10.3684 71.0172 10.1868 70.4888 9.8197Z" fill="white"/>
<path d="M11.3414 6.52176C10.2637 5.84918 9.009 6.49619 8.61568 6.73415C8.62982 7.17531 8.74343 7.60758 8.94804 7.99867C9.1631 8.4089 9.49413 8.74677 9.89987 8.97017C10.3171 9.20189 10.7874 9.32117 11.2647 9.3163C11.7452 9.32367 12.2195 9.20646 12.6413 8.97607C13.0486 8.75144 13.3825 8.41413 13.603 8.00457C13.8433 7.54938 13.9631 7.04028 13.9511 6.52569C13.9511 6.48833 13.9511 6.45293 13.9511 6.41556C13.4653 6.66729 12.3345 7.15304 11.3414 6.52176Z" fill="white"/>
<path d="M47.3537 6.52176C46.278 5.84918 45.0233 6.49619 44.628 6.73415C44.6428 7.17521 44.7564 7.60733 44.9604 7.99867C45.1767 8.40801 45.5074 8.74557 45.9122 8.97017C46.3295 9.20189 46.7998 9.32117 47.277 9.3163C47.7576 9.32367 48.2318 9.20646 48.6536 8.97607C49.0618 8.75252 49.3959 8.41494 49.6153 8.00457C49.8525 7.54653 49.9683 7.03533 49.9516 6.51979C49.9516 6.48243 49.9516 6.44703 49.9516 6.40966C49.4776 6.66729 48.3469 7.15304 47.3537 6.52176Z" fill="white"/>
<path d="M4.24393 0.376113C4.88193 0.487403 5.45284 0.839387 5.83884 1.35941C6.03972 1.64098 6.18041 1.96093 6.25214 2.29929C6.32387 2.63765 6.32511 2.98716 6.25576 3.32601C6.2243 3.48137 6.46226 3.54627 6.49372 3.39091C6.57045 3.02139 6.57078 2.64007 6.49469 2.27042C6.41859 1.90077 6.26768 1.55059 6.05124 1.24142C5.63374 0.663475 5.0098 0.268408 4.30883 0.138155C4.15543 0.110622 4.08857 0.346614 4.24393 0.376113Z" fill="white"/>
<path d="M19.4949 2.09887C18.6965 2.17557 17.8764 2.35846 17.2097 2.82651C16.9162 3.02102 16.6642 3.2719 16.4683 3.5646C16.2725 3.85729 16.1368 4.18597 16.0691 4.53155C16.0435 4.68691 16.2815 4.75378 16.307 4.59842C16.3675 4.27506 16.4934 3.96748 16.677 3.69456C16.8606 3.42164 17.0981 3.18915 17.3749 3.01137C18.0149 2.61584 18.7437 2.38666 19.4949 2.34469C19.6522 2.32896 19.6542 2.08314 19.4949 2.09887Z" fill="white"/>
<path d="M57.1533 2.0261C57.9037 2.18634 58.5789 2.59303 59.0714 3.18142C59.564 3.76981 59.8455 4.50607 59.8711 5.27296C59.8711 5.43225 60.1229 5.43225 60.117 5.27296C60.0915 4.45376 59.7936 3.66644 59.2704 3.03562C58.7471 2.40479 58.0284 1.9665 57.228 1.79011C57.0746 1.75668 57.0078 1.98677 57.1631 2.0261H57.1533Z" fill="white"/>
<path d="M35.6957 7.91012C35.9088 8.39255 36.2649 8.79795 36.7157 9.07157C37.1666 9.34519 37.6906 9.47383 38.2169 9.44014C38.3742 9.42834 38.3742 9.18251 38.2169 9.19431C37.7337 9.2271 37.2523 9.1093 36.8388 8.85713C36.4253 8.60496 36.1002 8.23083 35.9081 7.78623C35.8452 7.6407 35.6328 7.76656 35.6957 7.91012Z" fill="white"/>
</svg>
