<svg width="116" height="33" viewBox="0 0 116 33" fill="none" xmlns="http://www.w3.org/2000/svg">
<path d="M55.5094 10.4654C58.456 10.4654 60.8341 11.6024 62.5224 13.4726V2.5202L68.052 0.5V31.9978H62.5224V29.4755C60.8341 31.3456 58.456 32.4856 55.5094 32.4856C49.6335 32.4856 45.3449 27.6255 45.3449 21.4668C45.3449 15.3081 49.6335 10.4654 55.5094 10.4654ZM56.7071 27.5592C59.9596 27.5592 62.5224 24.9156 62.5224 21.4812C62.5224 18.0469 59.9596 15.4033 56.7071 15.4033C53.4546 15.4033 50.9553 18.0671 50.9553 21.4812C50.9553 24.8954 53.4748 27.5592 56.7071 27.5592Z" fill="white"/>
<path d="M110.903 27.7297V10.9533H105.374V13.4728C103.686 11.6026 101.307 10.4656 98.3609 10.4656C92.4878 10.4656 88.1964 15.3227 88.1964 21.4814C88.1964 27.6402 92.4878 32.5002 98.3609 32.5002C101.307 32.5002 103.686 31.3458 105.374 29.4901V32.0125H110.903L115.186 27.7297H110.903ZM99.5614 27.5594C96.3291 27.5594 93.8067 24.9158 93.8067 21.4814C93.8067 18.0471 96.3291 15.4035 99.5614 15.4035C102.794 15.4035 105.374 18.0673 105.374 21.4814C105.374 24.8956 102.808 27.5594 99.5614 27.5594Z" fill="white"/>
<path d="M26.8052 7.8363H31.0881L26.8052 3.55347H21.0332V12.6473L10.0548 16.6444V3.55347H4.28283L0 7.8363H4.28283V27.7295H0L4.28283 32.0124H10.0548V21.6227L21.0332 17.6285V32.0124H26.8052L31.0881 27.7295H26.8052V7.8363Z" fill="white"/>
<path d="M35.6075 12.3327L41.1977 10.3125V32.0355H35.6075V12.3327Z" fill="white"/>
<path d="M41.1977 2.65564L35.6075 4.69027V9.83602L41.1977 7.80139V2.65564Z" fill="white"/>
<path d="M81.5787 10.953L79.0477 13.484V10.953H73.4575V32.0122H79.0477V23.5793V20.852V16.5432H86.5888V10.953H81.5787Z" fill="white"/>
</svg>
