<svg width="75" height="12" viewBox="0 0 75 12" fill="none" xmlns="http://www.w3.org/2000/svg">
<path d="M0.909087 5.29077H0V3.70784H0.909087V1.82056H0.963579C1.21147 1.82038 1.45696 1.86908 1.68602 1.96386C1.91507 2.05865 2.1232 2.19765 2.29848 2.37294C2.47377 2.54823 2.61278 2.75635 2.70756 2.9854C2.80234 3.21446 2.85104 3.45995 2.85087 3.70784H4.55873V5.29077H2.85087V8.98294C2.85087 9.49198 3.05687 9.70994 3.66426 9.70994H4.55873V11.3381H3.34661C1.88463 11.3381 0.909087 10.7187 0.909087 8.96965V5.29077Z" fill="white"/>
<path d="M13.1578 11.338H11.2121V10.3745C10.7296 11.0217 9.88298 11.4377 8.93934 11.4377C7.16237 11.4377 5.88247 10.2801 5.88247 8.18681V3.70782H7.80963V7.90903C7.80963 9.13444 8.4848 9.79499 9.5042 9.79499C10.5502 9.79499 11.2121 9.13045 11.2121 7.90903V3.70782H13.1578V11.338Z" fill="white"/>
<path d="M73.8142 11.4376C73.1124 11.4376 72.618 10.9419 72.618 10.3079C72.618 9.67395 73.1151 9.17821 73.8142 9.17821C73.9671 9.17079 74.12 9.19451 74.2635 9.24793C74.4071 9.30135 74.5382 9.38337 74.6491 9.489C74.76 9.59464 74.8483 9.72169 74.9086 9.86246C74.9689 10.0032 75 10.1548 75 10.3079C75 10.4611 74.9689 10.6126 74.9086 10.7534C74.8483 10.8942 74.76 11.0212 74.6491 11.1268C74.5382 11.2325 74.4071 11.3145 74.2635 11.3679C74.12 11.4213 73.9671 11.4451 73.8142 11.4376Z" fill="#F94101"/>
<path d="M18.6363 5.29077H17.7272V3.70784H18.6363V1.82056H18.6908C19.1913 1.82056 19.6714 2.0194 20.0253 2.37333C20.3792 2.72726 20.5781 3.2073 20.5781 3.70784H22.2859V5.29077H20.5781V8.98294C20.5781 9.49197 20.7841 9.7126 21.3915 9.7126H22.2859V11.3381H21.0738C19.6118 11.3381 18.6363 10.7187 18.6363 8.96965V5.29077Z" fill="white"/>
<path d="M23.4701 1.669C23.4701 1.03503 23.9659 0.539289 24.6543 0.539289C24.807 0.53323 24.9592 0.557894 25.1022 0.611816C25.2451 0.665739 25.3757 0.74782 25.4863 0.853189C25.5968 0.958559 25.6851 1.08507 25.7459 1.22521C25.8066 1.36535 25.8386 1.51627 25.8399 1.669C25.8386 1.82174 25.8066 1.97265 25.7459 2.11279C25.6851 2.25294 25.5968 2.37944 25.4863 2.48481C25.3757 2.59018 25.2451 2.67227 25.1022 2.72619C24.9592 2.78011 24.807 2.80477 24.6543 2.79872C23.9659 2.79872 23.4701 2.30297 23.4701 1.669ZM23.6775 3.7078H25.606V11.338H23.6775V3.7078Z" fill="white"/>
<path d="M30.8345 11.4616C28.6163 11.4616 27.0055 9.91985 27.0055 7.5222C27.0055 5.12455 28.5751 3.58282 30.8345 3.58282C33.0381 3.58282 34.5945 5.08468 34.5945 7.3574C34.5969 7.60657 34.5786 7.85551 34.54 8.10168H28.9579C29.0549 9.23139 29.8258 9.86403 30.7907 9.86403C31.6174 9.86403 32.0719 9.45069 32.3191 8.94165H34.3991C33.9937 10.3465 32.7271 11.4616 30.8345 11.4616ZM28.9738 6.80982H32.6022C32.5756 5.80371 31.7768 5.16974 30.784 5.16974C29.8617 5.16708 29.132 5.75985 28.9805 6.80716L28.9738 6.80982Z" fill="white"/>
<path d="M48.1125 3.58285C49.1173 3.58285 50.0822 4.05201 50.6059 4.76838V1.14532H52.5609V11.338H50.6059V10.2083C50.1513 10.9114 49.2967 11.4616 48.0979 11.4616C46.1561 11.4616 44.6131 9.87867 44.6131 7.49564C44.6131 5.11261 46.1561 3.58285 48.1125 3.58285ZM48.5936 5.27742C47.5609 5.27742 46.5827 6.04961 46.5827 7.49564C46.5827 8.94168 47.5609 9.76836 48.5936 9.76836C49.6569 9.76836 50.6191 8.97092 50.6191 7.52222C50.6191 6.07353 49.6556 5.27742 48.5936 5.27742Z" fill="white"/>
<path d="M54.2422 1.669C54.2422 1.03503 54.7379 0.539289 55.4264 0.539289C55.5789 0.533228 55.7312 0.557899 55.874 0.611836C56.0168 0.665773 56.1474 0.747876 56.2578 0.853263C56.3683 0.95865 56.4565 1.08517 56.5171 1.22531C56.5777 1.36544 56.6095 1.51633 56.6106 1.669C56.6095 1.82203 56.5776 1.97326 56.5167 2.11367C56.4559 2.25407 56.3673 2.38078 56.2564 2.48623C56.1455 2.59167 56.0145 2.67368 55.8712 2.72737C55.7279 2.78106 55.5753 2.80533 55.4224 2.79872C54.7379 2.79872 54.2422 2.30297 54.2422 1.669ZM54.4482 3.7078H56.3767V11.338H54.4482V3.7078Z" fill="white"/>
<path d="M58.5803 5.29077H57.6712V3.70784H58.5803V1.82056H58.6348C58.8827 1.82038 59.1282 1.86908 59.3572 1.96386C59.5863 2.05865 59.7944 2.19765 59.9697 2.37294C60.145 2.54823 60.284 2.75635 60.3788 2.9854C60.4735 3.21446 60.5222 3.45995 60.5221 3.70784H62.2313V5.29077H60.5221V8.98294C60.5221 9.49198 60.7294 9.7126 61.3355 9.7126H62.2313V11.3381H61.0178C59.5558 11.3381 58.5803 10.7187 58.5803 8.96965V5.29077Z" fill="white"/>
<path d="M66.6106 3.58282C67.836 3.58282 68.6773 4.1623 69.1358 4.79494V3.70776H71.0776V11.338H69.1318V10.2229C68.6773 10.8874 67.8094 11.4616 66.5973 11.4616C64.6688 11.4616 63.131 9.87865 63.131 7.49562C63.131 5.11259 64.6688 3.58282 66.6106 3.58282ZM67.1063 5.2774C66.0736 5.2774 65.0954 6.04959 65.0954 7.49562C65.0954 8.94165 66.0736 9.76834 67.1063 9.76834C68.1696 9.76834 69.1318 8.97089 69.1318 7.5222C69.1318 6.07351 68.1669 5.2774 67.1063 5.2774Z" fill="white"/>
<path d="M41.3488 9.07193H41.3555C41.6178 8.83424 41.9591 8.7026 42.3131 8.7026C42.667 8.7026 43.0084 8.83424 43.2707 9.07193H43.2773V6.86168C43.2773 4.75377 42.0107 3.59747 40.2337 3.59747C39.2555 3.59747 38.4289 4.01082 37.9331 4.66073C37.9338 4.40703 37.8844 4.15569 37.7878 3.9211C37.6912 3.68651 37.5493 3.47329 37.3702 3.29365C37.191 3.11401 36.9782 2.97148 36.7439 2.87423C36.5095 2.77699 36.2583 2.72693 36.0046 2.72693V9.07193H36.0179C36.2802 8.83424 36.6215 8.7026 36.9755 8.7026C37.3295 8.7026 37.6708 8.83424 37.9331 9.07193H37.9398V7.12351C37.9398 5.89677 38.6149 5.23622 39.6676 5.23622C40.6856 5.23622 41.3608 5.90076 41.3608 7.12351L41.3488 9.07193Z" fill="white"/>
<path d="M36.9696 11.4616C37.5017 11.4616 37.9331 11.0302 37.9331 10.4981C37.9331 9.96589 37.5017 9.53448 36.9696 9.53448C36.4374 9.53448 36.006 9.96589 36.006 10.4981C36.006 11.0302 36.4374 11.4616 36.9696 11.4616Z" fill="#F94101"/>
<path d="M42.3137 11.4616C42.8459 11.4616 43.2773 11.0302 43.2773 10.4981C43.2773 9.96589 42.8459 9.53448 42.3137 9.53448C41.7816 9.53448 41.3502 9.96589 41.3502 10.4981C41.3502 11.0302 41.7816 11.4616 42.3137 11.4616Z" fill="#F94101"/>
</svg>
